<mxfile host="app.diagrams.net" modified="2022-05-08T04:04:02.842Z" agent="5.0 (Macintosh; Intel Mac OS X 10_15_7) AppleWebKit/605.1.15 (KHTML, like Gecko) Version/15.3 Safari/605.1.15" etag="Bphj4rvN2lp9XvAJkEKb" version="18.0.1" type="github">
  <diagram id="R2lEEEUBdFMjLlhIrx00" name="Page-1">
    <mxGraphModel dx="1320" dy="351" grid="1" gridSize="10" guides="1" tooltips="1" connect="1" arrows="1" fold="1" page="1" pageScale="1" pageWidth="850" pageHeight="1100" math="0" shadow="0" extFonts="Permanent Marker^https://fonts.googleapis.com/css?family=Permanent+Marker">
      <root>
        <mxCell id="0" />
        <mxCell id="1" parent="0" />
        <mxCell id="tCwiHJUhOg3-GdWYbGDd-6" value="" style="edgeStyle=orthogonalEdgeStyle;rounded=0;orthogonalLoop=1;jettySize=auto;html=1;" edge="1" parent="1" source="C-vyLk0tnHw3VtMMgP7b-23" target="tCwiHJUhOg3-GdWYbGDd-5">
          <mxGeometry relative="1" as="geometry" />
        </mxCell>
        <mxCell id="tCwiHJUhOg3-GdWYbGDd-8" value="" style="edgeStyle=orthogonalEdgeStyle;rounded=0;orthogonalLoop=1;jettySize=auto;html=1;" edge="1" parent="1" source="C-vyLk0tnHw3VtMMgP7b-23" target="tCwiHJUhOg3-GdWYbGDd-7">
          <mxGeometry relative="1" as="geometry" />
        </mxCell>
        <mxCell id="C-vyLk0tnHw3VtMMgP7b-23" value="Customers" style="shape=table;startSize=30;container=1;collapsible=1;childLayout=tableLayout;fixedRows=1;rowLines=0;fontStyle=1;align=center;resizeLast=1;" parent="1" vertex="1">
          <mxGeometry x="400" y="130" width="90" height="60" as="geometry" />
        </mxCell>
        <mxCell id="C-vyLk0tnHw3VtMMgP7b-24" value="" style="shape=partialRectangle;collapsible=0;dropTarget=0;pointerEvents=0;fillColor=none;points=[[0,0.5],[1,0.5]];portConstraint=eastwest;top=0;left=0;right=0;bottom=1;" parent="C-vyLk0tnHw3VtMMgP7b-23" vertex="1">
          <mxGeometry y="30" width="90" height="30" as="geometry" />
        </mxCell>
        <mxCell id="C-vyLk0tnHw3VtMMgP7b-25" value="PK" style="shape=partialRectangle;overflow=hidden;connectable=0;fillColor=none;top=0;left=0;bottom=0;right=0;fontStyle=1;" parent="C-vyLk0tnHw3VtMMgP7b-24" vertex="1">
          <mxGeometry width="30" height="30" as="geometry">
            <mxRectangle width="30" height="30" as="alternateBounds" />
          </mxGeometry>
        </mxCell>
        <mxCell id="C-vyLk0tnHw3VtMMgP7b-26" value="customer_id int NOT NULL " style="shape=partialRectangle;overflow=hidden;connectable=0;fillColor=none;top=0;left=0;bottom=0;right=0;align=left;spacingLeft=6;fontStyle=5;" parent="C-vyLk0tnHw3VtMMgP7b-24" vertex="1">
          <mxGeometry x="30" width="60" height="30" as="geometry">
            <mxRectangle width="60" height="30" as="alternateBounds" />
          </mxGeometry>
        </mxCell>
        <mxCell id="tCwiHJUhOg3-GdWYbGDd-10" value="" style="edgeStyle=orthogonalEdgeStyle;rounded=0;orthogonalLoop=1;jettySize=auto;html=1;" edge="1" parent="1" source="tCwiHJUhOg3-GdWYbGDd-5" target="tCwiHJUhOg3-GdWYbGDd-9">
          <mxGeometry relative="1" as="geometry" />
        </mxCell>
        <mxCell id="tCwiHJUhOg3-GdWYbGDd-5" value="" style="rhombus;whiteSpace=wrap;html=1;startSize=30;fontStyle=1;" vertex="1" parent="1">
          <mxGeometry x="520" y="120" width="120" height="80" as="geometry" />
        </mxCell>
        <mxCell id="tCwiHJUhOg3-GdWYbGDd-12" value="" style="edgeStyle=orthogonalEdgeStyle;rounded=0;orthogonalLoop=1;jettySize=auto;html=1;" edge="1" parent="1" source="tCwiHJUhOg3-GdWYbGDd-7" target="tCwiHJUhOg3-GdWYbGDd-11">
          <mxGeometry relative="1" as="geometry" />
        </mxCell>
        <mxCell id="tCwiHJUhOg3-GdWYbGDd-7" value="" style="rhombus;whiteSpace=wrap;html=1;startSize=30;fontStyle=1;" vertex="1" parent="1">
          <mxGeometry x="240" y="120" width="120" height="80" as="geometry" />
        </mxCell>
        <mxCell id="tCwiHJUhOg3-GdWYbGDd-9" value="" style="whiteSpace=wrap;html=1;startSize=30;fontStyle=1;" vertex="1" parent="1">
          <mxGeometry x="680" y="130" width="80" height="60" as="geometry" />
        </mxCell>
        <mxCell id="tCwiHJUhOg3-GdWYbGDd-21" value="" style="edgeStyle=orthogonalEdgeStyle;rounded=0;orthogonalLoop=1;jettySize=auto;html=1;strokeColor=none;" edge="1" parent="1" source="tCwiHJUhOg3-GdWYbGDd-11" target="tCwiHJUhOg3-GdWYbGDd-20">
          <mxGeometry relative="1" as="geometry">
            <Array as="points">
              <mxPoint x="200" y="110" />
              <mxPoint x="300" y="110" />
            </Array>
          </mxGeometry>
        </mxCell>
        <mxCell id="tCwiHJUhOg3-GdWYbGDd-27" value="" style="edgeStyle=orthogonalEdgeStyle;rounded=0;orthogonalLoop=1;jettySize=auto;html=1;exitX=0;exitY=0.5;exitDx=0;exitDy=0;" edge="1" parent="1" source="tCwiHJUhOg3-GdWYbGDd-26">
          <mxGeometry relative="1" as="geometry">
            <mxPoint x="160" y="190" as="targetPoint" />
            <Array as="points">
              <mxPoint x="160" y="255" />
              <mxPoint x="160" y="190" />
            </Array>
          </mxGeometry>
        </mxCell>
        <mxCell id="tCwiHJUhOg3-GdWYbGDd-30" value="" style="edgeStyle=orthogonalEdgeStyle;rounded=0;orthogonalLoop=1;jettySize=auto;html=1;exitX=0;exitY=0.5;exitDx=0;exitDy=0;" edge="1" parent="1" source="tCwiHJUhOg3-GdWYbGDd-29">
          <mxGeometry relative="1" as="geometry">
            <mxPoint x="160" y="190" as="targetPoint" />
            <Array as="points">
              <mxPoint x="160" y="335" />
              <mxPoint x="160" y="190" />
            </Array>
          </mxGeometry>
        </mxCell>
        <mxCell id="tCwiHJUhOg3-GdWYbGDd-11" value="" style="whiteSpace=wrap;html=1;startSize=30;fontStyle=1;" vertex="1" parent="1">
          <mxGeometry x="120" y="130" width="80" height="60" as="geometry" />
        </mxCell>
        <mxCell id="tCwiHJUhOg3-GdWYbGDd-13" value="" style="ellipse;whiteSpace=wrap;html=1;startSize=30;fontStyle=1;" vertex="1" parent="1">
          <mxGeometry x="110" y="30" width="100" height="50" as="geometry" />
        </mxCell>
        <mxCell id="tCwiHJUhOg3-GdWYbGDd-15" value="" style="ellipse;whiteSpace=wrap;html=1;startSize=30;fontStyle=1;" vertex="1" parent="1">
          <mxGeometry x="-30" y="30" width="100" height="60" as="geometry" />
        </mxCell>
        <mxCell id="tCwiHJUhOg3-GdWYbGDd-20" value="" style="ellipse;whiteSpace=wrap;html=1;startSize=30;fontStyle=1;" vertex="1" parent="1">
          <mxGeometry x="250" y="30" width="100" height="55" as="geometry" />
        </mxCell>
        <mxCell id="tCwiHJUhOg3-GdWYbGDd-25" value="" style="edgeStyle=orthogonalEdgeStyle;rounded=0;orthogonalLoop=1;jettySize=auto;html=1;" edge="1" parent="1" source="tCwiHJUhOg3-GdWYbGDd-22" target="tCwiHJUhOg3-GdWYbGDd-24">
          <mxGeometry relative="1" as="geometry" />
        </mxCell>
        <mxCell id="tCwiHJUhOg3-GdWYbGDd-58" style="edgeStyle=orthogonalEdgeStyle;rounded=0;orthogonalLoop=1;jettySize=auto;html=1;exitX=0.5;exitY=0;exitDx=0;exitDy=0;entryX=0.5;entryY=1;entryDx=0;entryDy=0;" edge="1" parent="1" source="tCwiHJUhOg3-GdWYbGDd-22" target="tCwiHJUhOg3-GdWYbGDd-11">
          <mxGeometry relative="1" as="geometry" />
        </mxCell>
        <mxCell id="tCwiHJUhOg3-GdWYbGDd-22" value="" style="rhombus;whiteSpace=wrap;html=1;startSize=30;fontStyle=1;" vertex="1" parent="1">
          <mxGeometry x="110" y="390" width="100" height="60" as="geometry" />
        </mxCell>
        <mxCell id="tCwiHJUhOg3-GdWYbGDd-33" value="" style="edgeStyle=orthogonalEdgeStyle;rounded=0;orthogonalLoop=1;jettySize=auto;html=1;" edge="1" parent="1" source="tCwiHJUhOg3-GdWYbGDd-24" target="tCwiHJUhOg3-GdWYbGDd-32">
          <mxGeometry relative="1" as="geometry" />
        </mxCell>
        <mxCell id="tCwiHJUhOg3-GdWYbGDd-35" value="" style="edgeStyle=orthogonalEdgeStyle;rounded=0;orthogonalLoop=1;jettySize=auto;html=1;" edge="1" parent="1" source="tCwiHJUhOg3-GdWYbGDd-24" target="tCwiHJUhOg3-GdWYbGDd-34">
          <mxGeometry relative="1" as="geometry">
            <Array as="points">
              <mxPoint x="80" y="550" />
              <mxPoint x="80" y="620" />
            </Array>
          </mxGeometry>
        </mxCell>
        <mxCell id="tCwiHJUhOg3-GdWYbGDd-37" value="" style="edgeStyle=orthogonalEdgeStyle;rounded=0;orthogonalLoop=1;jettySize=auto;html=1;" edge="1" parent="1" source="tCwiHJUhOg3-GdWYbGDd-24" target="tCwiHJUhOg3-GdWYbGDd-36">
          <mxGeometry relative="1" as="geometry">
            <Array as="points">
              <mxPoint x="140" y="580" />
              <mxPoint x="120" y="580" />
            </Array>
          </mxGeometry>
        </mxCell>
        <mxCell id="tCwiHJUhOg3-GdWYbGDd-39" value="" style="edgeStyle=orthogonalEdgeStyle;rounded=0;orthogonalLoop=1;jettySize=auto;html=1;" edge="1" parent="1" source="tCwiHJUhOg3-GdWYbGDd-24" target="tCwiHJUhOg3-GdWYbGDd-38">
          <mxGeometry relative="1" as="geometry" />
        </mxCell>
        <mxCell id="tCwiHJUhOg3-GdWYbGDd-41" style="edgeStyle=orthogonalEdgeStyle;rounded=0;orthogonalLoop=1;jettySize=auto;html=1;entryX=0.5;entryY=0;entryDx=0;entryDy=0;" edge="1" parent="1" source="tCwiHJUhOg3-GdWYbGDd-24" target="tCwiHJUhOg3-GdWYbGDd-40">
          <mxGeometry relative="1" as="geometry">
            <Array as="points">
              <mxPoint x="230" y="550" />
              <mxPoint x="230" y="590" />
              <mxPoint x="260" y="590" />
            </Array>
          </mxGeometry>
        </mxCell>
        <mxCell id="tCwiHJUhOg3-GdWYbGDd-43" value="" style="edgeStyle=orthogonalEdgeStyle;rounded=0;orthogonalLoop=1;jettySize=auto;html=1;" edge="1" parent="1" source="tCwiHJUhOg3-GdWYbGDd-24" target="tCwiHJUhOg3-GdWYbGDd-42">
          <mxGeometry relative="1" as="geometry" />
        </mxCell>
        <mxCell id="tCwiHJUhOg3-GdWYbGDd-45" value="" style="edgeStyle=orthogonalEdgeStyle;rounded=0;orthogonalLoop=1;jettySize=auto;html=1;" edge="1" parent="1" source="tCwiHJUhOg3-GdWYbGDd-24" target="tCwiHJUhOg3-GdWYbGDd-42">
          <mxGeometry relative="1" as="geometry" />
        </mxCell>
        <mxCell id="tCwiHJUhOg3-GdWYbGDd-24" value="" style="whiteSpace=wrap;html=1;startSize=30;fontStyle=1;" vertex="1" parent="1">
          <mxGeometry x="120" y="490" width="80" height="60" as="geometry" />
        </mxCell>
        <mxCell id="tCwiHJUhOg3-GdWYbGDd-52" style="edgeStyle=orthogonalEdgeStyle;rounded=0;orthogonalLoop=1;jettySize=auto;html=1;" edge="1" parent="1" source="tCwiHJUhOg3-GdWYbGDd-26" target="tCwiHJUhOg3-GdWYbGDd-9">
          <mxGeometry relative="1" as="geometry">
            <mxPoint x="680" y="200" as="targetPoint" />
            <Array as="points">
              <mxPoint x="720" y="255" />
            </Array>
          </mxGeometry>
        </mxCell>
        <mxCell id="tCwiHJUhOg3-GdWYbGDd-26" value="" style="rhombus;whiteSpace=wrap;html=1;startSize=30;fontStyle=1;" vertex="1" parent="1">
          <mxGeometry x="400" y="220" width="100" height="70" as="geometry" />
        </mxCell>
        <mxCell id="tCwiHJUhOg3-GdWYbGDd-28" style="edgeStyle=orthogonalEdgeStyle;rounded=0;orthogonalLoop=1;jettySize=auto;html=1;exitX=1;exitY=0.5;exitDx=0;exitDy=0;" edge="1" parent="1" source="tCwiHJUhOg3-GdWYbGDd-11">
          <mxGeometry relative="1" as="geometry">
            <mxPoint x="200" y="160" as="targetPoint" />
          </mxGeometry>
        </mxCell>
        <mxCell id="tCwiHJUhOg3-GdWYbGDd-49" value="" style="edgeStyle=orthogonalEdgeStyle;rounded=0;orthogonalLoop=1;jettySize=auto;html=1;" edge="1" parent="1" source="tCwiHJUhOg3-GdWYbGDd-29" target="tCwiHJUhOg3-GdWYbGDd-48">
          <mxGeometry relative="1" as="geometry" />
        </mxCell>
        <mxCell id="tCwiHJUhOg3-GdWYbGDd-54" style="edgeStyle=orthogonalEdgeStyle;rounded=0;orthogonalLoop=1;jettySize=auto;html=1;exitX=1;exitY=0.5;exitDx=0;exitDy=0;entryX=0.5;entryY=1;entryDx=0;entryDy=0;" edge="1" parent="1" source="tCwiHJUhOg3-GdWYbGDd-29" target="tCwiHJUhOg3-GdWYbGDd-9">
          <mxGeometry relative="1" as="geometry">
            <mxPoint x="720" y="200" as="targetPoint" />
            <Array as="points">
              <mxPoint x="720" y="335" />
            </Array>
          </mxGeometry>
        </mxCell>
        <mxCell id="tCwiHJUhOg3-GdWYbGDd-29" value="" style="rhombus;whiteSpace=wrap;html=1;startSize=30;fontStyle=1;" vertex="1" parent="1">
          <mxGeometry x="400" y="300" width="100" height="70" as="geometry" />
        </mxCell>
        <mxCell id="tCwiHJUhOg3-GdWYbGDd-32" value="" style="ellipse;whiteSpace=wrap;html=1;startSize=30;fontStyle=1;" vertex="1" parent="1">
          <mxGeometry x="-40" y="490" width="100" height="60" as="geometry" />
        </mxCell>
        <mxCell id="tCwiHJUhOg3-GdWYbGDd-34" value="" style="ellipse;whiteSpace=wrap;html=1;startSize=30;fontStyle=1;" vertex="1" parent="1">
          <mxGeometry x="-40" y="590" width="100" height="60" as="geometry" />
        </mxCell>
        <mxCell id="tCwiHJUhOg3-GdWYbGDd-36" value="" style="ellipse;whiteSpace=wrap;html=1;direction=south;" vertex="1" parent="1">
          <mxGeometry x="90" y="610" width="60" height="100" as="geometry" />
        </mxCell>
        <mxCell id="tCwiHJUhOg3-GdWYbGDd-38" value="" style="ellipse;whiteSpace=wrap;html=1;" vertex="1" parent="1">
          <mxGeometry x="160" y="610" width="60" height="100" as="geometry" />
        </mxCell>
        <mxCell id="tCwiHJUhOg3-GdWYbGDd-40" value="" style="ellipse;whiteSpace=wrap;html=1;" vertex="1" parent="1">
          <mxGeometry x="230" y="610" width="60" height="100" as="geometry" />
        </mxCell>
        <mxCell id="tCwiHJUhOg3-GdWYbGDd-42" value="" style="ellipse;whiteSpace=wrap;html=1;startSize=30;fontStyle=1;" vertex="1" parent="1">
          <mxGeometry x="240" y="490" width="100" height="60" as="geometry" />
        </mxCell>
        <mxCell id="tCwiHJUhOg3-GdWYbGDd-47" value="" style="edgeStyle=orthogonalEdgeStyle;rounded=0;orthogonalLoop=1;jettySize=auto;html=1;entryX=0.5;entryY=0;entryDx=0;entryDy=0;exitX=1;exitY=0.75;exitDx=0;exitDy=0;" edge="1" parent="1" source="tCwiHJUhOg3-GdWYbGDd-24" target="tCwiHJUhOg3-GdWYbGDd-44">
          <mxGeometry relative="1" as="geometry">
            <Array as="points">
              <mxPoint x="240" y="535" />
              <mxPoint x="240" y="560" />
              <mxPoint x="340" y="560" />
            </Array>
          </mxGeometry>
        </mxCell>
        <mxCell id="tCwiHJUhOg3-GdWYbGDd-44" value="" style="ellipse;whiteSpace=wrap;html=1;" vertex="1" parent="1">
          <mxGeometry x="290" y="580" width="100" height="60" as="geometry" />
        </mxCell>
        <mxCell id="tCwiHJUhOg3-GdWYbGDd-48" value="" style="whiteSpace=wrap;html=1;startSize=30;fontStyle=1;" vertex="1" parent="1">
          <mxGeometry x="410" y="400" width="80" height="60" as="geometry" />
        </mxCell>
        <mxCell id="tCwiHJUhOg3-GdWYbGDd-55" style="edgeStyle=orthogonalEdgeStyle;rounded=0;orthogonalLoop=1;jettySize=auto;html=1;exitX=0.5;exitY=0;exitDx=0;exitDy=0;entryX=0.5;entryY=1;entryDx=0;entryDy=0;" edge="1" parent="1" source="tCwiHJUhOg3-GdWYbGDd-50" target="tCwiHJUhOg3-GdWYbGDd-9">
          <mxGeometry relative="1" as="geometry">
            <Array as="points" />
          </mxGeometry>
        </mxCell>
        <mxCell id="tCwiHJUhOg3-GdWYbGDd-57" value="" style="edgeStyle=orthogonalEdgeStyle;rounded=0;orthogonalLoop=1;jettySize=auto;html=1;" edge="1" parent="1" source="tCwiHJUhOg3-GdWYbGDd-50" target="tCwiHJUhOg3-GdWYbGDd-56">
          <mxGeometry relative="1" as="geometry" />
        </mxCell>
        <mxCell id="tCwiHJUhOg3-GdWYbGDd-50" value="" style="rhombus;whiteSpace=wrap;html=1;startSize=30;fontStyle=1;" vertex="1" parent="1">
          <mxGeometry x="670" y="400" width="100" height="60" as="geometry" />
        </mxCell>
        <mxCell id="tCwiHJUhOg3-GdWYbGDd-56" value="" style="whiteSpace=wrap;html=1;startSize=30;fontStyle=1;" vertex="1" parent="1">
          <mxGeometry x="660" y="730" width="120" height="60" as="geometry" />
        </mxCell>
        <mxCell id="tCwiHJUhOg3-GdWYbGDd-62" value="" style="endArrow=none;html=1;rounded=0;exitX=1;exitY=0;exitDx=0;exitDy=0;entryX=0.5;entryY=1;entryDx=0;entryDy=0;" edge="1" parent="1" source="tCwiHJUhOg3-GdWYbGDd-11" target="tCwiHJUhOg3-GdWYbGDd-20">
          <mxGeometry width="50" height="50" relative="1" as="geometry">
            <mxPoint x="430" y="270" as="sourcePoint" />
            <mxPoint x="290" y="90" as="targetPoint" />
          </mxGeometry>
        </mxCell>
        <mxCell id="tCwiHJUhOg3-GdWYbGDd-63" value="" style="endArrow=none;html=1;rounded=0;exitX=0.5;exitY=0;exitDx=0;exitDy=0;entryX=0.5;entryY=1;entryDx=0;entryDy=0;" edge="1" parent="1" source="tCwiHJUhOg3-GdWYbGDd-11" target="tCwiHJUhOg3-GdWYbGDd-13">
          <mxGeometry width="50" height="50" relative="1" as="geometry">
            <mxPoint x="110" y="130" as="sourcePoint" />
            <mxPoint x="160" y="80" as="targetPoint" />
          </mxGeometry>
        </mxCell>
        <mxCell id="tCwiHJUhOg3-GdWYbGDd-64" value="" style="endArrow=none;html=1;rounded=0;entryX=0;entryY=0;entryDx=0;entryDy=0;exitX=0.5;exitY=1;exitDx=0;exitDy=0;" edge="1" parent="1" source="tCwiHJUhOg3-GdWYbGDd-15" target="tCwiHJUhOg3-GdWYbGDd-11">
          <mxGeometry width="50" height="50" relative="1" as="geometry">
            <mxPoint x="-30" y="140" as="sourcePoint" />
            <mxPoint x="20" y="90" as="targetPoint" />
          </mxGeometry>
        </mxCell>
      </root>
    </mxGraphModel>
  </diagram>
</mxfile>
